<svg id="ロゴ" xmlns="http://www.w3.org/2000/svg" xmlns:xlink="http://www.w3.org/1999/xlink" viewBox="0 0 333 93.02"><defs><style>.cls-1,.cls-2{fill:none;}.cls-1,.cls-2,.cls-4{stroke:#fff;stroke-miterlimit:10;stroke-width:2px;}.cls-2{stroke-linecap:round;}.cls-3{clip-path:url(#clip-path);}.cls-12,.cls-5,.cls-6{fill:#fff;}.cls-6{font-size:22px;font-family:NotoSansJP-Bold-90ms-RKSJ-H, Noto Sans JP;letter-spacing:0.15em;}.cls-7{letter-spacing:0.18em;}.cls-8{letter-spacing:0.17em;}.cls-9{letter-spacing:0.13em;}.cls-10{letter-spacing:0.13em;}.cls-11{letter-spacing:0.15em;}.cls-12{font-size:12px;font-family:Lato-Bold, Lato;font-weight:700;letter-spacing:0.15em;}</style><clipPath id="clip-path"><circle class="cls-1" cx="46.51" cy="46.51" r="45.51"/></clipPath></defs><line class="cls-2" x1="29.1" y1="70.74" x2="74.84" y2="70.74"/><line class="cls-2" x1="21.11" y1="74.94" x2="55.06" y2="74.94"/><line class="cls-2" x1="42.09" y1="79.73" x2="61.56" y2="79.73"/><path class="cls-1" d="M23.79,65.85c4.64-10.76,7.6-10.72,11.14-10.72,5.59,0,9.1,5.32,17,4,4-.68,5.12-2.4,8.18-2,4.5.64,7.58,5.13,9.49,8.83"/><g class="cls-3"><line class="cls-4" x1="3.86" y1="65.97" x2="89.05" y2="65.97"/></g><circle class="cls-1" cx="46.51" cy="46.51" r="45.51"/><circle class="cls-5" cx="58.09" cy="9.94" r="2"/><circle class="cls-5" cx="39.5" cy="29.03" r="2"/><circle class="cls-5" cx="45.2" cy="42.28" r="2"/><circle class="cls-5" cx="58.6" cy="47.62" r="2"/><circle class="cls-5" cx="71.85" cy="41.92" r="2"/><circle class="cls-5" cx="77.18" cy="28.52" r="2"/><circle class="cls-5" cx="71.49" cy="15.27" r="2"/><path class="cls-2" d="M58.22,13.69V24.3"/><path class="cls-2" d="M47.89,18.17l7.5,7.5"/><path class="cls-2" d="M43.75,28.64H54.36"/><path class="cls-2" d="M48.11,39.26l7.5-7.5"/><path class="cls-2" d="M58.82,43.4V32.79"/><path class="cls-2" d="M69.2,39l-7.5-7.5"/><path class="cls-2" d="M73.58,28.33H63"/><path class="cls-2" d="M69.1,17.66l-7.5,7.5"/><path class="cls-2" d="M50.47,10.1l4.61,11.12"/><path class="cls-2" d="M39.57,21.14l11.12,4.6"/><path class="cls-2" d="M39.66,36.65,50.79,32"/><path class="cls-2" d="M50.7,47.56l4.61-11.13"/><path class="cls-2" d="M66.21,47.46l-4.6-11.13"/><path class="cls-2" d="M77.12,36.42,66,31.81"/><path class="cls-2" d="M77,20.91,65.9,25.51"/><path class="cls-2" d="M66,10,61.38,21.13"/><circle class="cls-5" cx="44.84" cy="15.64" r="2"/><line class="cls-2" x1="18.39" y1="29.81" x2="21.5" y2="35.2"/><line class="cls-2" x1="12.06" y1="40.54" x2="18.28" y2="40.54"/><line class="cls-2" x1="18.18" y1="51.39" x2="21.29" y2="46"/><line class="cls-2" x1="30.64" y1="51.51" x2="27.52" y2="46.12"/><line class="cls-2" x1="36.97" y1="40.79" x2="30.75" y2="40.79"/><line class="cls-2" x1="30.85" y1="29.94" x2="27.74" y2="35.33"/><path class="cls-2" d="M24.67,30.77l-.11,6.77"/><path class="cls-2" d="M16,35.58l5.81,3.49"/><path class="cls-2" d="M15.86,45.48l5.93-3.29"/><path class="cls-2" d="M24.36,50.56l.11-6.77"/><path class="cls-2" d="M33,45.75l-5.82-3.49"/><path class="cls-2" d="M33.16,35.85l-5.92,3.29"/><text class="cls-6" transform="translate(141.97 41.42)">星<tspan class="cls-7" x="25.34" y="0">駆</tspan><tspan class="cls-8" x="51.35" y="0">花</tspan><tspan class="cls-9" x="77.02" y="0">火</tspan><tspan class="cls-10" x="101.9" y="0">大</tspan><tspan class="cls-11" x="126.72" y="0">会</tspan></text><text class="cls-12" transform="translate(111 67.54)">HOSHIKAKE HANABI FESTIVAL</text></svg>