<svg id="ロゴ" xmlns="http://www.w3.org/2000/svg" xmlns:xlink="http://www.w3.org/1999/xlink" viewBox="0 0 330.99 93.02"><defs><style>.cls-1,.cls-2{fill:none;}.cls-1,.cls-2,.cls-4{stroke:#fff;stroke-miterlimit:10;stroke-width:2px;}.cls-2{stroke-linecap:round;}.cls-3{clip-path:url(#clip-path);}.cls-5{fill:#fff;}</style><clipPath id="clip-path"><circle class="cls-1" cx="46.51" cy="46.51" r="45.51"/></clipPath></defs><line class="cls-2" x1="29.1" y1="70.74" x2="74.84" y2="70.74"/><line class="cls-2" x1="21.11" y1="74.94" x2="55.06" y2="74.94"/><line class="cls-2" x1="42.09" y1="79.73" x2="61.56" y2="79.73"/><path class="cls-1" d="M23.79,65.85c4.64-10.76,7.6-10.72,11.14-10.72,5.59,0,9.1,5.32,17,4,4-.68,5.12-2.4,8.18-2,4.5.64,7.58,5.13,9.49,8.83"/><g class="cls-3"><line class="cls-4" x1="3.86" y1="65.97" x2="89.05" y2="65.97"/></g><circle class="cls-1" cx="46.51" cy="46.51" r="45.51"/><circle class="cls-5" cx="58.09" cy="9.94" r="2"/><circle class="cls-5" cx="39.5" cy="29.03" r="2"/><circle class="cls-5" cx="45.2" cy="42.28" r="2"/><circle class="cls-5" cx="58.6" cy="47.62" r="2"/><circle class="cls-5" cx="71.85" cy="41.92" r="2"/><circle class="cls-5" cx="77.18" cy="28.52" r="2"/><circle class="cls-5" cx="71.49" cy="15.27" r="2"/><path class="cls-2" d="M58.22,13.69V24.3"/><path class="cls-2" d="M47.89,18.17l7.5,7.5"/><path class="cls-2" d="M43.75,28.64H54.36"/><path class="cls-2" d="M48.11,39.26l7.5-7.5"/><path class="cls-2" d="M58.82,43.4V32.79"/><path class="cls-2" d="M69.2,39l-7.5-7.5"/><path class="cls-2" d="M73.58,28.33H63"/><path class="cls-2" d="M69.1,17.66l-7.5,7.5"/><path class="cls-2" d="M50.47,10.1l4.61,11.12"/><path class="cls-2" d="M39.57,21.14l11.12,4.6"/><path class="cls-2" d="M39.66,36.65,50.79,32"/><path class="cls-2" d="M50.7,47.56l4.61-11.13"/><path class="cls-2" d="M66.21,47.46l-4.6-11.13"/><path class="cls-2" d="M77.12,36.42,66,31.81"/><path class="cls-2" d="M77,20.91,65.9,25.51"/><path class="cls-2" d="M66,10,61.38,21.13"/><circle class="cls-5" cx="44.84" cy="15.64" r="2"/><line class="cls-2" x1="18.39" y1="29.81" x2="21.5" y2="35.2"/><line class="cls-2" x1="12.06" y1="40.54" x2="18.28" y2="40.54"/><line class="cls-2" x1="18.18" y1="51.39" x2="21.29" y2="46"/><line class="cls-2" x1="30.64" y1="51.51" x2="27.52" y2="46.12"/><line class="cls-2" x1="36.97" y1="40.79" x2="30.75" y2="40.79"/><line class="cls-2" x1="30.85" y1="29.94" x2="27.74" y2="35.33"/><path class="cls-2" d="M24.67,30.77l-.11,6.77"/><path class="cls-2" d="M16,35.58l5.81,3.49"/><path class="cls-2" d="M15.86,45.48l5.93-3.29"/><path class="cls-2" d="M24.36,50.56l.11-6.77"/><path class="cls-2" d="M33,45.75l-5.82-3.49"/><path class="cls-2" d="M33.16,35.85l-5.92,3.29"/><path class="cls-5" d="M162.69,40.52v2.27H143.31V40.52h8.38V39H146V37h5.67V35.64H147a15.52,15.52,0,0,1-2,2.2,13.71,13.71,0,0,0-2.17-1.61,12.58,12.58,0,0,0,3.63-4.49h-1V23.56h15v8.18H147.31l1.83.53c-.2.4-.39.79-.64,1.21h3.19V32.14h2.71v1.34h6.91v2.16H154.4V37h5.9v2h-5.9v1.5ZM148,26.7h9.72V25.54H148Zm0,3h9.72V28.55H148Z"/><path class="cls-5" d="M167.88,41.45a12.36,12.36,0,0,0,1.08-5l1.45.31c-.15,1.94-.37,4-1.14,5.31Zm9.91-7.86s0,.59,0,.88c-.22,5.3-.48,7.37-1,8a1.79,1.79,0,0,1-1.32.79,10.91,10.91,0,0,1-2,.05,5.54,5.54,0,0,0-.55-2.05,9.17,9.17,0,0,0,1.38.09.65.65,0,0,0,.6-.29,4.59,4.59,0,0,0,.44-2l-.68.26a12.22,12.22,0,0,0-1-2.86l1.06-.35a15.55,15.55,0,0,1,.75,1.78c0-.66.09-1.4.13-2.31H169v-12h8.4v2.11h-2.68V27h2.33v2h-2.33v1.3h2.33v2h-2.33v1.39Zm-6.08,3.23a21.1,21.1,0,0,1,.24,4l-1.21.16a26.15,26.15,0,0,0-.15-4.08Zm-.48-11.13V27h1.41V25.69ZM172.64,29h-1.41v1.3h1.41Zm-1.41,4.64h1.41V32.2h-1.41Zm2,3a18.14,18.14,0,0,1,.75,3.54l-1.17.22a17.7,17.7,0,0,0-.68-3.56Zm7.5,3.33h7.88v2.37h-7.88v1.1h-2.44V23.6h10V26h-7.59v3.28l1.39-1.1c.72.72,1.45,1.51,2.18,2.33a36.56,36.56,0,0,0,.9-3.94l2.42.4a43,43,0,0,1-1.52,5.72,28.59,28.59,0,0,1,2.57,3.78l-1.93,1.65A25.33,25.33,0,0,0,185,35.26a16.87,16.87,0,0,1-2.75,4.2A13.08,13.08,0,0,0,180.71,38Zm0-2.51a14.22,14.22,0,0,0,2.66-4.34c-.85-1.08-1.76-2.15-2.66-3.12Z"/><path class="cls-5" d="M202,29.19h-1.87l1.87.57a21.7,21.7,0,0,1-1.61,2.75V43.34h-2.59V35.77a20.22,20.22,0,0,1-1.94,1.82,16.87,16.87,0,0,0-2.16-1.84,18.17,18.17,0,0,0,5.7-6.78v-1.8h-4.86V24.66h4.86V22.79H202v1.87h4.64V22.79h2.62v1.87h4.77v2.51h-4.77v2.06h-2.62V27.17H202Zm9,11.4c.9,0,1.06-.51,1.19-3.24a7.29,7.29,0,0,0,2.37,1c-.3,3.56-1,4.62-3.34,4.62h-3.43c-2.66,0-3.37-.79-3.37-3.52V29.34h2.6v4.34a31.75,31.75,0,0,0,4.79-2.82l2,2a45.83,45.83,0,0,1-6.75,3.24v3.41c0,1,.13,1.1,1.1,1.1Z"/><path class="cls-5" d="M231.29,29.94c0,3.34,2.07,8.4,8.91,10.93a11.51,11.51,0,0,0-1.82,2.47,15,15,0,0,1-8.52-8.74,14.23,14.23,0,0,1-8.16,8.74,13.23,13.23,0,0,0-1.85-2.25c6.62-2.53,8.62-7.85,8.62-11.13V23.09h2.82Zm-5.72-2.22c-.37,2.75-1,5.36-2.9,6.93l-2.38-1.48c1.6-1.36,2.33-3.54,2.64-6Zm13.69.48a53.43,53.43,0,0,1-3.55,6l-2.28-1a33.37,33.37,0,0,0,2.94-6.1Z"/><path class="cls-5" d="M256.9,31.39c1.45,4.29,4.11,7.75,8.23,9.42a10.53,10.53,0,0,0-1.94,2.46c-4-1.87-6.53-5.08-8.25-9.33a15.11,15.11,0,0,1-8.23,9.35,7.86,7.86,0,0,0-2-2.22,13.19,13.19,0,0,0,8-9.68h-7.57V28.68h8c.22-2.06.2-4.07.22-5.87h2.86c0,1.8,0,3.83-.26,5.87h8.64v2.71Z"/><path class="cls-5" d="M274.56,30.18a24.91,24.91,0,0,1-3.72,2.2,9.85,9.85,0,0,0-1.54-2.2,21.9,21.9,0,0,0,8.89-7.37h2.73a20.11,20.11,0,0,0,9.31,7,14.36,14.36,0,0,0-1.7,2.4,26.9,26.9,0,0,1-3.69-2.13v1.74H274.56Zm-3.89,3.43h18.19V36H279c-.64,1.3-1.37,2.66-2,3.9l6.63-.25a27.13,27.13,0,0,0-2.16-2.24l2.31-1.21a29.88,29.88,0,0,1,5,5.66l-2.44,1.47a11.4,11.4,0,0,0-.88-1.36c-5.17.28-10.61.5-14.35.68l-.35-2.56L274.1,40a42.28,42.28,0,0,0,1.67-4h-5.1Zm13.22-4.22a21.67,21.67,0,0,1-4.22-4.07,20.28,20.28,0,0,1-4,4.07Z"/><path class="cls-5" d="M119.28,58.86v8.68h-1.62V63.75h-4.07v3.79H112V58.86h1.62V62.6h4.07V58.86Z"/><path class="cls-5" d="M131.31,63.2A4.84,4.84,0,0,1,131,65a4.28,4.28,0,0,1-.89,1.41,4.17,4.17,0,0,1-1.39.92,4.93,4.93,0,0,1-3.6,0,4,4,0,0,1-1.38-.92,4.15,4.15,0,0,1-.9-1.41,4.84,4.84,0,0,1-.32-1.77,4.92,4.92,0,0,1,.32-1.77,4,4,0,0,1,.9-1.4,3.91,3.91,0,0,1,1.38-.93,4.73,4.73,0,0,1,1.8-.33,5,5,0,0,1,1.24.15,4.43,4.43,0,0,1,1.07.43,4.12,4.12,0,0,1,1.53,1.57,4.31,4.31,0,0,1,.41,1.07A5.28,5.28,0,0,1,131.31,63.2Zm-1.65,0a4,4,0,0,0-.19-1.28,2.66,2.66,0,0,0-.55-1,2.22,2.22,0,0,0-.86-.61,3,3,0,0,0-1.14-.21,2.9,2.9,0,0,0-1.14.21,2.33,2.33,0,0,0-.87.61,2.66,2.66,0,0,0-.55,1,4.25,4.25,0,0,0-.19,1.28,4.2,4.2,0,0,0,.19,1.28,2.66,2.66,0,0,0,.55,1,2.45,2.45,0,0,0,.87.61,2.9,2.9,0,0,0,1.14.21,3,3,0,0,0,1.14-.21,2.32,2.32,0,0,0,.86-.61,2.66,2.66,0,0,0,.55-1A3.91,3.91,0,0,0,129.66,63.2Z"/><path class="cls-5" d="M139.18,60.44a.41.41,0,0,1-.16.18.32.32,0,0,1-.2.06.54.54,0,0,1-.27-.09l-.35-.21-.48-.21a2,2,0,0,0-.64-.09,2.05,2.05,0,0,0-.59.08,1.2,1.2,0,0,0-.42.23.86.86,0,0,0-.26.34,1.27,1.27,0,0,0-.08.44.72.72,0,0,0,.17.51,1.24,1.24,0,0,0,.45.35,4.26,4.26,0,0,0,.64.26l.74.24c.25.09.5.19.74.3a2.87,2.87,0,0,1,.64.43,2,2,0,0,1,.45.64,2.16,2.16,0,0,1,.18.92,2.87,2.87,0,0,1-.21,1.1,2.68,2.68,0,0,1-.58.9,3,3,0,0,1-.95.6,3.61,3.61,0,0,1-1.28.22,3.72,3.72,0,0,1-.81-.09,3.82,3.82,0,0,1-.77-.23,4.2,4.2,0,0,1-.7-.36,3.7,3.7,0,0,1-.57-.46l.47-.78a.56.56,0,0,1,.16-.14.36.36,0,0,1,.2-.06.56.56,0,0,1,.33.13l.41.27a3.24,3.24,0,0,0,.56.27,2.17,2.17,0,0,0,.77.13,1.57,1.57,0,0,0,1.07-.33,1.18,1.18,0,0,0,.38-.94.91.91,0,0,0-.17-.56,1.54,1.54,0,0,0-.46-.36,3.16,3.16,0,0,0-.64-.25l-.73-.22a6.52,6.52,0,0,1-.73-.29,2.21,2.21,0,0,1-.64-.44,2,2,0,0,1-.46-.67,2.68,2.68,0,0,1-.17-1,2.31,2.31,0,0,1,.19-.93,2.4,2.4,0,0,1,.55-.79,2.6,2.6,0,0,1,.89-.56,3.23,3.23,0,0,1,1.21-.21,4.11,4.11,0,0,1,1.42.24,3.13,3.13,0,0,1,1.1.67Z"/><path class="cls-5" d="M150.28,58.86v8.68h-1.62V63.75h-4.08v3.79H143V58.86h1.62V62.6h4.08V58.86Z"/><path class="cls-5" d="M155.65,67.54H154V58.86h1.62Z"/><path class="cls-5" d="M161,62.5h.38a1,1,0,0,0,.37-.06.73.73,0,0,0,.26-.2l2.4-3a.85.85,0,0,1,.31-.27,1,1,0,0,1,.42-.08h1.39l-2.92,3.61a1.62,1.62,0,0,1-.53.47,1.1,1.1,0,0,1,.35.2,1.48,1.48,0,0,1,.31.34l3,4.06h-1.42a.91.91,0,0,1-.43-.08.62.62,0,0,1-.24-.24L162.24,64a.64.64,0,0,0-.27-.23,1.16,1.16,0,0,0-.43-.07H161v3.82h-1.62V58.86H161Z"/><path class="cls-5" d="M176.9,67.54h-1.25a.53.53,0,0,1-.34-.11.65.65,0,0,1-.2-.26l-.65-1.77h-3.59l-.65,1.77a.52.52,0,0,1-.19.26.53.53,0,0,1-.34.11h-1.26l3.42-8.68h1.64Zm-2.85-3.28L173,61.38c-.05-.13-.1-.28-.16-.46l-.17-.57a5.71,5.71,0,0,1-.16.57c-.05.18-.11.34-.16.47l-1.05,2.87Z"/><path class="cls-5" d="M181.24,62.5h.37a1,1,0,0,0,.38-.06.73.73,0,0,0,.26-.2l2.39-3a.87.87,0,0,1,.32-.27,1,1,0,0,1,.42-.08h1.39l-2.92,3.61a1.64,1.64,0,0,1-.54.47,1.27,1.27,0,0,1,.36.2,1.26,1.26,0,0,1,.3.34l3,4.06h-1.42a1,1,0,0,1-.43-.08.66.66,0,0,1-.23-.24L182.44,64a.57.57,0,0,0-.26-.23,1.2,1.2,0,0,0-.43-.07h-.51v3.82h-1.62V58.86h1.62Z"/><path class="cls-5" d="M191.29,60.15v2.4h3V63.8h-3v2.45h3.85v1.29h-5.47V58.86h5.47v1.29Z"/><path class="cls-5" d="M210.45,58.86v8.68h-1.62V63.75h-4.07v3.79h-1.62V58.86h1.62V62.6h4.07V58.86Z"/><path class="cls-5" d="M221.64,67.54h-1.25a.53.53,0,0,1-.34-.11.65.65,0,0,1-.2-.26l-.65-1.77h-3.59L215,67.17a.56.56,0,0,1-.18.26.55.55,0,0,1-.34.11h-1.27l3.42-8.68h1.64Zm-2.85-3.28-1-2.88a4.6,4.6,0,0,1-.17-.46c0-.17-.11-.36-.16-.57-.06.21-.11.4-.17.57s-.11.34-.16.47L216,64.26Z"/><path class="cls-5" d="M231.68,58.86v8.68h-.83a.76.76,0,0,1-.32-.06.84.84,0,0,1-.25-.22l-4.53-5.78c0,.26,0,.51,0,.73v5.33h-1.43V58.86h1l.13,0a.38.38,0,0,1,.11.08.77.77,0,0,1,.12.13l4.55,5.81,0-.41c0-.14,0-.27,0-.38V58.86Z"/><path class="cls-5" d="M242.87,67.54h-1.25a.53.53,0,0,1-.34-.11.57.57,0,0,1-.2-.26l-.65-1.77h-3.59l-.65,1.77a.52.52,0,0,1-.19.26.53.53,0,0,1-.34.11H234.4l3.42-8.68h1.64ZM240,64.26,239,61.38c-.05-.13-.1-.28-.16-.46s-.11-.36-.17-.57a5.71,5.71,0,0,1-.16.57c-.06.18-.11.34-.16.47l-1.05,2.87Z"/><path class="cls-5" d="M248.58,58.86A5.63,5.63,0,0,1,250,59a2.67,2.67,0,0,1,1,.46,1.79,1.79,0,0,1,.57.72,2.49,2.49,0,0,1,.18,1,1.92,1.92,0,0,1-.09.59,1.65,1.65,0,0,1-.28.52,2.27,2.27,0,0,1-.48.44,3,3,0,0,1-.69.34c1.19.27,1.79.91,1.79,1.93a2.62,2.62,0,0,1-.21,1,2.44,2.44,0,0,1-.62.81,3.11,3.11,0,0,1-1,.53,4.25,4.25,0,0,1-1.34.19h-3.28V58.86Zm-1.37,1.25v2.51h1.28a2.16,2.16,0,0,0,1.25-.3,1.09,1.09,0,0,0,.42-1,1.11,1.11,0,0,0-.38-1,2,2,0,0,0-1.2-.29Zm1.63,6.17a2.28,2.28,0,0,0,.75-.11,1.23,1.23,0,0,0,.49-.29,1,1,0,0,0,.27-.42,1.7,1.7,0,0,0,.08-.51,1.35,1.35,0,0,0-.09-.5,1.08,1.08,0,0,0-.28-.39,1.55,1.55,0,0,0-.5-.24,2.58,2.58,0,0,0-.73-.08h-1.62v2.54Z"/><path class="cls-5" d="M256.94,67.54h-1.62V58.86h1.62Z"/><path class="cls-5" d="M267.06,60.15v2.57h3.25V64h-3.25v3.53h-1.62V58.86h5.47v1.29Z"/><path class="cls-5" d="M275.68,60.15v2.4h3V63.8h-3v2.45h3.85v1.29h-5.47V58.86h5.47v1.29Z"/><path class="cls-5" d="M287.4,60.44a.47.47,0,0,1-.15.18.34.34,0,0,1-.2.06.54.54,0,0,1-.28-.09l-.35-.21a4.32,4.32,0,0,0-.47-.21,2.13,2.13,0,0,0-.65-.09,2.1,2.1,0,0,0-.59.08,1.3,1.3,0,0,0-.42.23,1,1,0,0,0-.26.34,1.27,1.27,0,0,0-.08.44.77.77,0,0,0,.17.51,1.43,1.43,0,0,0,.45.35,4.4,4.4,0,0,0,.65.26l.73.24c.26.09.5.19.74.3a2.66,2.66,0,0,1,.64.43,2.14,2.14,0,0,1,.46.64,2.32,2.32,0,0,1,.17.92,3.07,3.07,0,0,1-.2,1.1,2.7,2.7,0,0,1-.59.9,2.91,2.91,0,0,1-.94.6,3.65,3.65,0,0,1-1.28.22,3.75,3.75,0,0,1-.82-.09,4,4,0,0,1-.77-.23,3.75,3.75,0,0,1-.69-.36,3.36,3.36,0,0,1-.58-.46l.48-.78a.67.67,0,0,1,.15-.14.37.37,0,0,1,.21-.06.53.53,0,0,1,.32.13l.41.27a3.24,3.24,0,0,0,.56.27,2.26,2.26,0,0,0,.77.13,1.57,1.57,0,0,0,1.07-.33,1.15,1.15,0,0,0,.38-.94.91.91,0,0,0-.17-.56,1.38,1.38,0,0,0-.45-.36,3.71,3.71,0,0,0-.64-.25l-.74-.22a7.38,7.38,0,0,1-.73-.29,2.35,2.35,0,0,1-.64-.44,1.88,1.88,0,0,1-.45-.67,2.74,2.74,0,0,1,0-1.93,2.4,2.4,0,0,1,.55-.79,2.6,2.6,0,0,1,.89-.56,3.27,3.27,0,0,1,1.21-.21,4.07,4.07,0,0,1,1.42.24,3.13,3.13,0,0,1,1.1.67Z"/><path class="cls-5" d="M297.25,60.19h-2.62v7.35H293V60.19H290.4V58.86h6.85Z"/><path class="cls-5" d="M301.83,67.54h-1.62V58.86h1.62Z"/><path class="cls-5" d="M313,58.86l-3.51,8.68h-1.45l-3.51-8.68h1.3a.53.53,0,0,1,.34.11.59.59,0,0,1,.2.26l2,5.29a5.36,5.36,0,0,1,.2.57c.06.2.12.42.18.64,0-.22.1-.44.15-.64a5.43,5.43,0,0,1,.19-.57l2-5.29a.56.56,0,0,1,.19-.25.5.5,0,0,1,.34-.12Z"/><path class="cls-5" d="M323.18,67.54h-1.24a.51.51,0,0,1-.34-.11.57.57,0,0,1-.2-.26l-.65-1.77h-3.59l-.65,1.77a.67.67,0,0,1-.19.26.55.55,0,0,1-.34.11h-1.26l3.41-8.68h1.65Zm-2.84-3.28-1.06-2.88a4.79,4.79,0,0,1-.16-.46c-.06-.17-.11-.36-.17-.57-.05.21-.11.4-.16.57a4.87,4.87,0,0,1-.17.47l-1,2.87Z"/><path class="cls-5" d="M331,66.21v1.33h-5.08V58.86h1.61v7.35Z"/></svg>