<svg id="ロゴ" xmlns="http://www.w3.org/2000/svg" xmlns:xlink="http://www.w3.org/1999/xlink" viewBox="0 0 222 154.96"><defs><style>.cls-1,.cls-2{fill:none;}.cls-1,.cls-2,.cls-4{stroke:#fff;stroke-miterlimit:10;stroke-width:2px;}.cls-2{stroke-linecap:round;}.cls-3{clip-path:url(#clip-path);}.cls-5{fill:#fff;}</style><clipPath id="clip-path"><circle class="cls-1" cx="108" cy="46.51" r="45.51"/></clipPath></defs><line class="cls-2" x1="90.59" y1="70.74" x2="136.33" y2="70.74"/><line class="cls-2" x1="82.6" y1="74.94" x2="116.55" y2="74.94"/><line class="cls-2" x1="103.58" y1="79.73" x2="123.05" y2="79.73"/><path class="cls-1" d="M85.28,65.85c4.64-10.76,7.6-10.72,11.14-10.72,5.59,0,9.09,5.32,17,4,4-.68,5.12-2.4,8.18-2,4.5.64,7.58,5.13,9.49,8.83"/><g class="cls-3"><line class="cls-4" x1="65.35" y1="65.97" x2="150.54" y2="65.97"/></g><circle class="cls-1" cx="108" cy="46.51" r="45.51"/><circle class="cls-5" cx="119.58" cy="9.94" r="2"/><circle class="cls-5" cx="100.99" cy="29.03" r="2"/><circle class="cls-5" cx="106.69" cy="42.28" r="2"/><circle class="cls-5" cx="120.09" cy="47.62" r="2"/><circle class="cls-5" cx="133.33" cy="41.92" r="2"/><circle class="cls-5" cx="138.67" cy="28.52" r="2"/><circle class="cls-5" cx="132.97" cy="15.27" r="2"/><path class="cls-2" d="M119.71,13.69V24.3"/><path class="cls-2" d="M109.38,18.17l7.5,7.5"/><path class="cls-2" d="M105.24,28.64h10.61"/><path class="cls-2" d="M109.6,39.26l7.5-7.5"/><path class="cls-2" d="M120.31,43.4V32.79"/><path class="cls-2" d="M130.69,39l-7.5-7.5"/><path class="cls-2" d="M135.07,28.33H124.46"/><path class="cls-2" d="M130.59,17.66l-7.5,7.5"/><path class="cls-2" d="M112,10.1l4.61,11.12"/><path class="cls-2" d="M101.05,21.14l11.13,4.6"/><path class="cls-2" d="M101.15,36.65,112.28,32"/><path class="cls-2" d="M112.19,47.56l4.61-11.13"/><path class="cls-2" d="M127.7,47.46l-4.61-11.13"/><path class="cls-2" d="M138.61,36.42l-11.13-4.61"/><path class="cls-2" d="M138.51,20.91l-11.12,4.6"/><path class="cls-2" d="M127.47,10l-4.61,11.13"/><circle class="cls-5" cx="106.33" cy="15.64" r="2"/><line class="cls-2" x1="79.88" y1="29.81" x2="82.99" y2="35.2"/><line class="cls-2" x1="73.54" y1="40.54" x2="79.77" y2="40.54"/><line class="cls-2" x1="79.67" y1="51.39" x2="82.78" y2="46"/><line class="cls-2" x1="92.12" y1="51.51" x2="89.01" y2="46.12"/><line class="cls-2" x1="98.46" y1="40.79" x2="92.24" y2="40.79"/><line class="cls-2" x1="92.34" y1="29.94" x2="89.23" y2="35.33"/><path class="cls-2" d="M86.15,30.77l-.1,6.77"/><path class="cls-2" d="M77.5,35.58l5.82,3.49"/><path class="cls-2" d="M77.35,45.48l5.93-3.29"/><path class="cls-2" d="M85.85,50.56,86,43.79"/><path class="cls-2" d="M94.5,45.75l-5.82-3.49"/><path class="cls-2" d="M94.65,35.85l-5.92,3.29"/><path class="cls-5" d="M52.69,127.52v2.27H33.31v-2.27h8.38V126H36v-2h5.67v-1.34H37a15.52,15.52,0,0,1-2,2.2,13.71,13.71,0,0,0-2.17-1.61,12.58,12.58,0,0,0,3.63-4.49h-1v-8.18h15v8.18H37.31l1.83.53c-.2.4-.4.79-.64,1.21h3.19v-1.34H44.4v1.34h6.91v2.16H44.4V124h5.9v2H44.4v1.5ZM38,113.7h9.72v-1.16H38Zm0,3h9.72v-1.19H38Z"/><path class="cls-5" d="M57.88,128.45a12.54,12.54,0,0,0,1.08-5l1.45.31c-.15,1.94-.37,4-1.14,5.31Zm9.9-7.86s0,.59,0,.88c-.22,5.3-.48,7.37-1,8a1.79,1.79,0,0,1-1.32.79,10.91,10.91,0,0,1-2,.05,5.74,5.74,0,0,0-.55-2.05,9.17,9.17,0,0,0,1.38.09.65.65,0,0,0,.6-.29,4.59,4.59,0,0,0,.44-2l-.68.26a12.7,12.7,0,0,0-1-2.86l1.06-.35a17.57,17.57,0,0,1,.75,1.78c0-.66.09-1.4.13-2.31H59v-12h8.4v2.11H64.75V114h2.33v2H64.75v1.3h2.33v2H64.75v1.39Zm-6.07,3.23a21.1,21.1,0,0,1,.24,4l-1.21.16a26.11,26.11,0,0,0-.15-4.08Zm-.48-11.13V114h1.41v-1.28ZM62.64,116H61.23v1.3h1.41Zm-1.41,4.64h1.41V119.2H61.23Zm2,3a18.08,18.08,0,0,1,.75,3.55l-1.17.21a17.7,17.7,0,0,0-.68-3.56Zm7.5,3.32h7.88v2.38H70.71v1.1H68.27V110.6h10V113H70.71v3.28l1.39-1.11c.72.73,1.45,1.52,2.18,2.34a36.56,36.56,0,0,0,.9-3.94l2.42.4a43,43,0,0,1-1.52,5.72,28.59,28.59,0,0,1,2.57,3.78l-1.93,1.65A25.33,25.33,0,0,0,75,122.26a17.12,17.12,0,0,1-2.75,4.21A12.29,12.29,0,0,0,70.71,125Zm0-2.5a14.22,14.22,0,0,0,2.66-4.34c-.85-1.08-1.76-2.15-2.66-3.12Z"/><path class="cls-5" d="M92,116.19H90.16l1.87.57a21.7,21.7,0,0,1-1.61,2.75v10.83H87.83v-7.57a20.22,20.22,0,0,1-1.94,1.82,17.59,17.59,0,0,0-2.16-1.84,18.17,18.17,0,0,0,5.7-6.78v-1.8H84.57v-2.51h4.86v-1.87H92v1.87h4.64v-1.87h2.62v1.87h4.77v2.51H99.29v2.06H96.67v-2.06H92Zm9,11.4c.9,0,1.06-.51,1.19-3.24a7.29,7.29,0,0,0,2.37,1c-.3,3.56-1,4.62-3.34,4.62H97.84c-2.67,0-3.37-.79-3.37-3.52V116.34h2.6v4.34a31.75,31.75,0,0,0,4.79-2.82l2,2a46.33,46.33,0,0,1-6.75,3.24v3.41c0,1,.13,1.1,1.1,1.1Z"/><path class="cls-5" d="M121.29,116.94c0,3.34,2.07,8.4,8.91,10.93a11.9,11.9,0,0,0-1.83,2.47,15,15,0,0,1-8.51-8.74,14.23,14.23,0,0,1-8.16,8.74,13.72,13.72,0,0,0-1.85-2.25c6.62-2.53,8.62-7.85,8.62-11.13v-6.87h2.82Zm-5.72-2.22c-.38,2.75-1,5.36-2.91,6.93l-2.37-1.48c1.6-1.36,2.33-3.54,2.64-6Zm13.68.48a52,52,0,0,1-3.54,6l-2.29-1a32.76,32.76,0,0,0,3-6.1Z"/><path class="cls-5" d="M146.9,118.39c1.45,4.29,4.11,7.75,8.23,9.42a10.53,10.53,0,0,0-1.94,2.46c-4-1.87-6.53-5.08-8.25-9.33a15.14,15.14,0,0,1-8.23,9.35,7.86,7.86,0,0,0-2-2.22,13.19,13.19,0,0,0,8-9.68h-7.57v-2.71h8c.22-2.06.2-4.07.22-5.87h2.86c0,1.8,0,3.83-.26,5.87h8.64v2.71Z"/><path class="cls-5" d="M164.56,117.18a24.91,24.91,0,0,1-3.72,2.2,9.85,9.85,0,0,0-1.54-2.2,21.9,21.9,0,0,0,8.89-7.37h2.73a20.11,20.11,0,0,0,9.31,7,14.36,14.36,0,0,0-1.7,2.4,26.9,26.9,0,0,1-3.69-2.13v1.74H164.56Zm-3.89,3.43h18.19V123H169c-.64,1.3-1.37,2.66-2,3.9l6.62-.25a25.5,25.5,0,0,0-2.15-2.24l2.31-1.21a29.58,29.58,0,0,1,5,5.66l-2.44,1.47a11.4,11.4,0,0,0-.88-1.36c-5.17.28-10.61.5-14.35.68l-.35-2.55,3.32-.12a42.28,42.28,0,0,0,1.67-4h-5.1Zm13.22-4.22a21.67,21.67,0,0,1-4.22-4.07,20.28,20.28,0,0,1-4,4.07Z"/><path class="cls-5" d="M8.28,142.86v8.68H6.66v-3.79H2.59v3.79H1v-8.68H2.59v3.74H6.66v-3.74Z"/><path class="cls-5" d="M20.31,147.2A4.84,4.84,0,0,1,20,149a4.15,4.15,0,0,1-.9,1.41,4,4,0,0,1-1.38.92,4.93,4.93,0,0,1-3.6,0,4,4,0,0,1-1.38-.92,4.15,4.15,0,0,1-.9-1.41,5.06,5.06,0,0,1,0-3.54,4,4,0,0,1,.9-1.4,3.91,3.91,0,0,1,1.38-.93,4.73,4.73,0,0,1,1.8-.33,5,5,0,0,1,1.24.15,4.61,4.61,0,0,1,1.07.43,4.12,4.12,0,0,1,1.53,1.57,4.31,4.31,0,0,1,.41,1.07A5.28,5.28,0,0,1,20.31,147.2Zm-1.65,0a3.91,3.91,0,0,0-.19-1.28,2.66,2.66,0,0,0-.55-1,2.22,2.22,0,0,0-.86-.61,3,3,0,0,0-1.14-.21,2.9,2.9,0,0,0-1.14.21,2.33,2.33,0,0,0-.87.61,2.66,2.66,0,0,0-.55,1,4.41,4.41,0,0,0,0,2.56,2.66,2.66,0,0,0,.55,1,2.45,2.45,0,0,0,.87.61,2.9,2.9,0,0,0,1.14.21,3,3,0,0,0,1.14-.21,2.32,2.32,0,0,0,.86-.61,2.66,2.66,0,0,0,.55-1A3.91,3.91,0,0,0,18.66,147.2Z"/><path class="cls-5" d="M28.18,144.44a.41.41,0,0,1-.16.18.32.32,0,0,1-.2.06.54.54,0,0,1-.27-.09l-.35-.21a3.63,3.63,0,0,0-.48-.21,2,2,0,0,0-.64-.09,2.05,2.05,0,0,0-.59.08,1.2,1.2,0,0,0-.42.23.86.86,0,0,0-.26.34,1.08,1.08,0,0,0-.08.44.72.72,0,0,0,.17.51,1.24,1.24,0,0,0,.45.35,4.26,4.26,0,0,0,.64.26l.74.24c.25.09.5.19.74.3a2.87,2.87,0,0,1,.64.43,2,2,0,0,1,.45.64,2.16,2.16,0,0,1,.17.92,2.87,2.87,0,0,1-.2,1.1,2.68,2.68,0,0,1-.58.9,3,3,0,0,1-.95.6,3.61,3.61,0,0,1-1.28.22,3.66,3.66,0,0,1-.81-.09,3.82,3.82,0,0,1-.77-.23,4.2,4.2,0,0,1-.7-.36,3.7,3.7,0,0,1-.57-.46l.47-.78a.56.56,0,0,1,.16-.14.36.36,0,0,1,.2-.06.51.51,0,0,1,.32.13l.42.27a3.24,3.24,0,0,0,.56.27,2.18,2.18,0,0,0,.77.12,1.57,1.57,0,0,0,1.07-.32,1.18,1.18,0,0,0,.38-.94.91.91,0,0,0-.17-.56,1.54,1.54,0,0,0-.46-.36,3.41,3.41,0,0,0-.64-.25l-.73-.22a6.52,6.52,0,0,1-.73-.29,2.4,2.4,0,0,1-.65-.44,2.19,2.19,0,0,1-.45-.67,2.68,2.68,0,0,1-.17-1,2.31,2.31,0,0,1,.19-.93,2.4,2.4,0,0,1,.55-.79,2.6,2.6,0,0,1,.89-.56,3.23,3.23,0,0,1,1.21-.21,4,4,0,0,1,1.41.24,3.17,3.17,0,0,1,1.11.67Z"/><path class="cls-5" d="M39.28,142.86v8.68H37.66v-3.79H33.58v3.79H32v-8.68h1.62v3.74h4.08v-3.74Z"/><path class="cls-5" d="M44.65,151.54H43v-8.68h1.62Z"/><path class="cls-5" d="M50,146.5h.38a1,1,0,0,0,.37-.06.66.66,0,0,0,.26-.21l2.4-3a.85.85,0,0,1,.31-.27,1,1,0,0,1,.42-.08h1.39l-2.92,3.61a1.55,1.55,0,0,1-.54.47.91.91,0,0,1,.36.2,1.26,1.26,0,0,1,.3.34l3,4.06H54.35a1,1,0,0,1-.43-.08.66.66,0,0,1-.23-.24L51.23,148a.57.57,0,0,0-.26-.23,1.16,1.16,0,0,0-.43-.07H50v3.82H48.41v-8.68H50Z"/><path class="cls-5" d="M65.9,151.54H64.65a.53.53,0,0,1-.34-.11.57.57,0,0,1-.2-.26l-.65-1.77H59.87l-.65,1.77a.52.52,0,0,1-.19.26.53.53,0,0,1-.34.11H57.43l3.42-8.68h1.64Zm-2.85-3.28L62,145.38c-.05-.13-.1-.28-.16-.46s-.11-.37-.17-.57c0,.2-.1.4-.16.57s-.11.34-.16.47l-1.05,2.87Z"/><path class="cls-5" d="M70.24,146.5h.37a1,1,0,0,0,.38-.06.66.66,0,0,0,.26-.21l2.39-3a.87.87,0,0,1,.32-.27,1,1,0,0,1,.42-.08h1.39l-2.92,3.61a1.64,1.64,0,0,1-.54.47,1.07,1.07,0,0,1,.36.2,1.46,1.46,0,0,1,.3.34l3,4.06H74.56a1,1,0,0,1-.43-.08.66.66,0,0,1-.23-.24L71.44,148a.57.57,0,0,0-.26-.23,1.2,1.2,0,0,0-.43-.07h-.51v3.82H68.62v-8.68h1.62Z"/><path class="cls-5" d="M80.29,144.15v2.4h3v1.25h-3v2.45h3.85v1.29H78.67v-8.68h5.47v1.29Z"/><path class="cls-5" d="M99.45,142.86v8.68H97.83v-3.79H93.76v3.79H92.14v-8.68h1.62v3.74h4.07v-3.74Z"/><path class="cls-5" d="M110.64,151.54h-1.25a.53.53,0,0,1-.34-.11.65.65,0,0,1-.2-.26l-.65-1.77h-3.59l-.65,1.77a.56.56,0,0,1-.18.26.58.58,0,0,1-.35.11h-1.26l3.42-8.68h1.64Zm-2.85-3.28-1.06-2.88c0-.13-.1-.28-.16-.46l-.17-.57c-.05.2-.1.4-.16.57s-.11.34-.16.47l-1,2.87Z"/><path class="cls-5" d="M120.68,142.86v8.68h-.83a.73.73,0,0,1-.32-.06.84.84,0,0,1-.25-.22l-4.53-5.78c0,.26,0,.51,0,.73v5.33h-1.43v-8.68h1l.13,0a.38.38,0,0,1,.11.08.51.51,0,0,1,.12.13l4.55,5.81,0-.41c0-.14,0-.27,0-.38v-5.28Z"/><path class="cls-5" d="M131.87,151.54h-1.25a.53.53,0,0,1-.34-.11.57.57,0,0,1-.2-.26l-.65-1.77h-3.59l-.65,1.77a.52.52,0,0,1-.19.26.53.53,0,0,1-.34.11H123.4l3.42-8.68h1.64ZM129,148.26,128,145.38c0-.13-.1-.28-.16-.46s-.11-.37-.17-.57c0,.2-.1.4-.16.57s-.11.34-.16.47l-1,2.87Z"/><path class="cls-5" d="M137.58,142.86A5.63,5.63,0,0,1,139,143a2.67,2.67,0,0,1,1,.46,1.79,1.79,0,0,1,.57.72,2.49,2.49,0,0,1,.18,1,1.92,1.92,0,0,1-.09.59,1.65,1.65,0,0,1-.28.52,2.27,2.27,0,0,1-.48.44,3,3,0,0,1-.69.34c1.19.27,1.78.91,1.78,1.93a2.45,2.45,0,0,1-.21,1,2.28,2.28,0,0,1-.61.81,3.11,3.11,0,0,1-1,.53,4.56,4.56,0,0,1-1.34.19h-3.28v-8.68Zm-1.37,1.25v2.51h1.28a2.16,2.16,0,0,0,1.25-.3,1.09,1.09,0,0,0,.42-.95,1.11,1.11,0,0,0-.38-1,2,2,0,0,0-1.2-.29Zm1.63,6.17a2.28,2.28,0,0,0,.75-.11,1.23,1.23,0,0,0,.49-.29,1,1,0,0,0,.27-.42,1.7,1.7,0,0,0,.08-.51,1.35,1.35,0,0,0-.09-.5,1.08,1.08,0,0,0-.28-.39,1.55,1.55,0,0,0-.5-.24,2.55,2.55,0,0,0-.73-.09h-1.62v2.55Z"/><path class="cls-5" d="M145.94,151.54h-1.62v-8.68h1.62Z"/><path class="cls-5" d="M156.06,144.15v2.57h3.25V148h-3.25v3.53h-1.62v-8.68h5.47v1.29Z"/><path class="cls-5" d="M164.68,144.15v2.4h3v1.25h-3v2.45h3.85v1.29h-5.47v-8.68h5.47v1.29Z"/><path class="cls-5" d="M176.4,144.44a.47.47,0,0,1-.15.18.34.34,0,0,1-.2.06.54.54,0,0,1-.28-.09l-.35-.21a3,3,0,0,0-.47-.21,2.13,2.13,0,0,0-.65-.09,2.1,2.1,0,0,0-.59.08,1.2,1.2,0,0,0-.42.23,1,1,0,0,0-.26.34,1.27,1.27,0,0,0-.08.44.77.77,0,0,0,.17.51,1.43,1.43,0,0,0,.45.35,4.4,4.4,0,0,0,.65.26l.73.24c.26.09.5.19.74.3a2.66,2.66,0,0,1,.64.43,2.14,2.14,0,0,1,.46.64,2.32,2.32,0,0,1,.17.92,3.07,3.07,0,0,1-.2,1.1,2.7,2.7,0,0,1-.59.9,2.86,2.86,0,0,1-.95.6,3.55,3.55,0,0,1-1.27.22,3.75,3.75,0,0,1-.82-.09,4,4,0,0,1-.77-.23,3.75,3.75,0,0,1-.69-.36,3.36,3.36,0,0,1-.58-.46l.47-.78a.73.73,0,0,1,.16-.14.36.36,0,0,1,.2-.06.56.56,0,0,1,.33.13l.41.27a3.24,3.24,0,0,0,.56.27,2.22,2.22,0,0,0,.77.12,1.57,1.57,0,0,0,1.07-.32,1.18,1.18,0,0,0,.38-.94.91.91,0,0,0-.17-.56,1.49,1.49,0,0,0-.45-.36,3.52,3.52,0,0,0-.65-.25l-.73-.22a6.52,6.52,0,0,1-.73-.29,2.35,2.35,0,0,1-.64-.44,1.88,1.88,0,0,1-.45-.67,2.6,2.6,0,0,1,0-1.93,2.4,2.4,0,0,1,.55-.79,2.6,2.6,0,0,1,.89-.56,3.27,3.27,0,0,1,1.21-.21,4.07,4.07,0,0,1,1.42.24,3.13,3.13,0,0,1,1.1.67Z"/><path class="cls-5" d="M186.25,144.19h-2.62v7.35H182v-7.35H179.4v-1.33h6.85Z"/><path class="cls-5" d="M190.83,151.54h-1.62v-8.68h1.62Z"/><path class="cls-5" d="M202,142.86l-3.51,8.68h-1.46l-3.5-8.68h1.3a.53.53,0,0,1,.34.11.59.59,0,0,1,.2.26l2,5.29a5.36,5.36,0,0,1,.2.57c.06.2.12.42.17.64.05-.22.1-.44.16-.64a5.43,5.43,0,0,1,.19-.57l2-5.29a.56.56,0,0,1,.19-.25.5.5,0,0,1,.34-.12Z"/><path class="cls-5" d="M212.18,151.54h-1.24a.56.56,0,0,1-.35-.11.63.63,0,0,1-.19-.26l-.65-1.77h-3.6l-.64,1.77a.67.67,0,0,1-.19.26.55.55,0,0,1-.34.11h-1.26l3.41-8.68h1.65Zm-2.85-3.28-1.05-2.88a4.79,4.79,0,0,1-.16-.46c-.06-.17-.12-.37-.17-.57,0,.2-.11.4-.16.57a4.87,4.87,0,0,1-.17.47l-1.05,2.87Z"/><path class="cls-5" d="M220,150.21v1.33h-5.08v-8.68h1.61v7.35Z"/></svg>